STARTFONT 2.1
FONT -Bitstream-Terminal-Medium-R-Normal--25-180-100-100-C-150-DEC-DECtech
SIZE 18 100 100
FONTBOUNDINGBOX 15 25 0 -5

STARTPROPERTIES 27
FOUNDRY "Bitstream"
FAMILY_NAME "Terminal"
WEIGHT_NAME "Medium"
SLANT "R"
SETWIDTH_NAME "Normal"
ADD_STYLE_NAME ""
PIXEL_SIZE 25
POINT_SIZE 180
RESOLUTION_X 100
RESOLUTION_Y 100
SPACING "C"
AVERAGE_WIDTH 150
CHARSET_REGISTRY "DEC"
CHARSET_ENCODING "DECtech"
CAP_HEIGHT 15
COPYRIGHT "Copyright (c) 1991 Digital Equipment Corporation. All Rights Reserved."
_DEC_PRODUCTINFO "DECterm Fonts V2.2, 11-Nov-1991"
AVG_CAPITAL_WIDTH 150
AVG_LOWERCASE_WIDTH 150
FIGURE_WIDTH 15
FULL_NAME "Terminal"
WEIGHT 10
X_HEIGHT -3
QUAD_WIDTH 15
DEFAULT_CHAR 159
FONT_DESCENT 5
FONT_ASCENT 20
ENDPROPERTIES

CHARS 182

STARTCHAR space
ENCODING 32
SWIDTH 565 0
DWIDTH 15 0
BBX 15 25 0 -5
BITMAP
0000
0000
0000
0000
0000
0000
0000
0000
0000
0000
0000
0000
0000
0000
0000
0000
0000
0000
0000
0000
0000
0000
0000
0000
0000
ENDCHAR

STARTCHAR exclam
ENCODING 33
SWIDTH 565 0
DWIDTH 15 0
BBX 15 25 0 -5
BITMAP
0000
0000
0000
0000
0000
0380
0380
0380
0380
0380
0380
0380
0380
0380
0000
0000
0380
07C0
07C0
0380
0000
0000
0000
0000
0000
ENDCHAR

STARTCHAR quotedbl
ENCODING 34
SWIDTH 565 0
DWIDTH 15 0
BBX 15 25 0 -5
BITMAP
0000
0000
0E70
0E70
0E70
0E70
0E70
0E70
0E70
0000
0000
0000
0000
0000
0000
0000
0000
0000
0000
0000
0000
0000
0000
0000
0000
ENDCHAR

STARTCHAR numbersign
ENCODING 35
SWIDTH 565 0
DWIDTH 15 0
BBX 15 25 0 -5
BITMAP
0000
0000
0000
0000
0000
1CE0
1CE0
1CE0
1CE0
1CE0
1CE0
1CE0
FFFC
1CE0
1CE0
1CE0
FFFC
1CE0
1CE0
1CE0
1CE0
1CE0
1CE0
1CE0
0000
ENDCHAR

STARTCHAR dollar
ENCODING 36
SWIDTH 565 0
DWIDTH 15 0
BBX 15 25 0 -5
BITMAP
0000
0000
0180
0180
0180
0FD8
1C78
3838
3838
3800
3800
3C00
1FF0
0078
0038
0038
3838
3838
3C30
37E0
0300
0300
0300
0300
0000
ENDCHAR

STARTCHAR percent
ENCODING 37
SWIDTH 565 0
DWIDTH 15 0
BBX 15 25 0 -5
BITMAP
0000
0000
0000
0000
0000
3C00
7E00
E700
C300
E700
7E30
3CC0
0300
0CF0
31F8
039C
030C
039C
01F8
00F0
0000
0000
0000
0000
0000
ENDCHAR

STARTCHAR ampersand
ENCODING 38
SWIDTH 565 0
DWIDTH 15 0
BBX 15 25 0 -5
BITMAP
0000
0000
0000
0000
0000
07A0
0EE0
0C60
0C00
0C00
0E00
0600
0F38
1F30
19B0
19B0
18F0
18F0
1FF8
0F38
0000
0000
0000
0000
0000
ENDCHAR

STARTCHAR quoteright
ENCODING 39
SWIDTH 565 0
DWIDTH 15 0
BBX 15 25 0 -5
BITMAP
0000
0000
01E0
01E0
01C0
0380
0380
0300
0300
0000
0000
0000
0000
0000
0000
0000
0000
0000
0000
0000
0000
0000
0000
0000
0000
ENDCHAR

STARTCHAR parenleft
ENCODING 40
SWIDTH 565 0
DWIDTH 15 0
BBX 15 25 0 -5
BITMAP
0000
0000
0000
0040
00C0
0080
0180
0180
0300
0300
0700
0700
0700
0700
0700
0700
0700
0300
0300
0180
0180
0080
00C0
0040
0000
ENDCHAR

STARTCHAR parenright
ENCODING 41
SWIDTH 565 0
DWIDTH 15 0
BBX 15 25 0 -5
BITMAP
0000
0000
0000
0400
0600
0200
0300
0300
0180
0180
01C0
01C0
01C0
01C0
01C0
01C0
01C0
0180
0180
0300
0300
0200
0600
0400
0000
ENDCHAR

STARTCHAR asterisk
ENCODING 42
SWIDTH 565 0
DWIDTH 15 0
BBX 15 25 0 -5
BITMAP
0000
0000
0000
0000
0000
0000
0000
0000
0380
0380
3398
3BB8
1FF0
0FE0
07C0
0FE0
0EE0
1C70
1C70
0000
0000
0000
0000
0000
0000
ENDCHAR

STARTCHAR plus
ENCODING 43
SWIDTH 565 0
DWIDTH 15 0
BBX 15 25 0 -5
BITMAP
0000
0000
0000
0000
0000
0000
0000
0300
0300
0300
0300
0300
7FF8
7FF8
0300
0300
0300
0300
0300
0000
0000
0000
0000
0000
0000
ENDCHAR

STARTCHAR comma
ENCODING 44
SWIDTH 565 0
DWIDTH 15 0
BBX 15 25 0 -5
BITMAP
0000
0000
0000
0000
0000
0000
0000
0000
0000
0000
0000
0000
0000
0000
0000
0000
03C0
03C0
03C0
0380
0380
0700
0600
0600
0000
ENDCHAR

STARTCHAR minus
ENCODING 45
SWIDTH 565 0
DWIDTH 15 0
BBX 15 25 0 -5
BITMAP
0000
0000
0000
0000
0000
0000
0000
0000
0000
0000
0000
0000
7FFC
7FFC
0000
0000
0000
0000
0000
0000
0000
0000
0000
0000
0000
ENDCHAR

STARTCHAR period
ENCODING 46
SWIDTH 565 0
DWIDTH 15 0
BBX 15 25 0 -5
BITMAP
0000
0000
0000
0000
0000
0000
0000
0000
0000
0000
0000
0000
0000
0000
0000
0000
0380
07C0
07C0
0380
0000
0000
0000
0000
0000
ENDCHAR

STARTCHAR slash
ENCODING 47
SWIDTH 565 0
DWIDTH 15 0
BBX 15 25 0 -5
BITMAP
0000
0000
0000
0018
0030
0030
0060
0060
00C0
00C0
0180
0180
0300
0300
0600
0600
0C00
0C00
1800
1800
3000
3000
0000
0000
0000
ENDCHAR

STARTCHAR zero
ENCODING 48
SWIDTH 565 0
DWIDTH 15 0
BBX 15 25 0 -5
BITMAP
0000
0000
0000
0000
0000
0780
1CE0
1860
1860
3870
3870
3870
3870
3870
3870
3870
1860
1860
1CE0
0780
0000
0000
0000
0000
0000
ENDCHAR

STARTCHAR one
ENCODING 49
SWIDTH 565 0
DWIDTH 15 0
BBX 15 25 0 -5
BITMAP
0000
0000
0000
0000
0000
0780
3F80
3380
0380
0380
0380
0380
0380
0380
0380
0380
0380
0380
0380
3FF0
0000
0000
0000
0000
0000
ENDCHAR

STARTCHAR two
ENCODING 50
SWIDTH 565 0
DWIDTH 15 0
BBX 15 25 0 -5
BITMAP
0000
0000
0000
0000
0000
0FC0
1CE0
3870
3870
0070
00F0
00E0
01C0
0380
0700
0E00
1C00
3870
3870
3FF0
0000
0000
0000
0000
0000
ENDCHAR

STARTCHAR three
ENCODING 51
SWIDTH 565 0
DWIDTH 15 0
BBX 15 25 0 -5
BITMAP
0000
0000
0000
0000
0000
0FC0
3CE0
3870
0070
0070
00E0
0780
0780
00E0
0070
0070
0070
3870
3CE0
0FC0
0000
0000
0000
0000
0000
ENDCHAR

STARTCHAR four
ENCODING 52
SWIDTH 565 0
DWIDTH 15 0
BBX 15 25 0 -5
BITMAP
0000
0000
0000
0000
0000
01E0
03E0
02E0
06E0
04E0
0CE0
08E0
18E0
30E0
3FF8
3FF8
00E0
00E0
00E0
07F8
0000
0000
0000
0000
0000
ENDCHAR

STARTCHAR five
ENCODING 53
SWIDTH 565 0
DWIDTH 15 0
BBX 15 25 0 -5
BITMAP
0000
0000
0000
0000
0000
3FE0
3FE0
3800
3800
3800
3BC0
3FE0
38F0
0070
0070
0070
0070
3870
38E0
1F80
0000
0000
0000
0000
0000
ENDCHAR

STARTCHAR six
ENCODING 54
SWIDTH 565 0
DWIDTH 15 0
BBX 15 25 0 -5
BITMAP
0000
0000
0000
0000
0000
01E0
0780
0600
1C00
1C00
39C0
3BE0
3CF0
3870
3870
3870
3870
1C60
1EC0
0780
0000
0000
0000
0000
0000
ENDCHAR

STARTCHAR seven
ENCODING 55
SWIDTH 565 0
DWIDTH 15 0
BBX 15 25 0 -5
BITMAP
0000
0000
0000
0000
0000
3FF0
3FF0
3070
3060
00E0
00C0
00C0
0180
0180
0380
0380
0300
0700
0700
0700
0000
0000
0000
0000
0000
ENDCHAR

STARTCHAR eight
ENCODING 56
SWIDTH 565 0
DWIDTH 15 0
BBX 15 25 0 -5
BITMAP
0000
0000
0000
0000
0000
0780
1CE0
1860
3870
3870
1CE0
0FC0
0780
1CE0
3870
3870
3870
3870
1CE0
0780
0000
0000
0000
0000
0000
ENDCHAR

STARTCHAR nine
ENCODING 57
SWIDTH 565 0
DWIDTH 15 0
BBX 15 25 0 -5
BITMAP
0000
0000
0000
0000
0000
0780
1CE0
3860
3870
3870
3870
3870
1CF0
0F70
0070
00E0
00E0
01C0
0780
1E00
0000
0000
0000
0000
0000
ENDCHAR

STARTCHAR colon
ENCODING 58
SWIDTH 565 0
DWIDTH 15 0
BBX 15 25 0 -5
BITMAP
0000
0000
0000
0000
0000
0000
0000
0000
0380
07C0
07C0
0380
0000
0000
0000
0000
0380
07C0
07C0
0380
0000
0000
0000
0000
0000
ENDCHAR

STARTCHAR semicolon
ENCODING 59
SWIDTH 565 0
DWIDTH 15 0
BBX 15 25 0 -5
BITMAP
0000
0000
0000
0000
0000
0000
0000
0000
01C0
03E0
03E0
01C0
0000
0000
0000
0000
03C0
03C0
03C0
0380
0380
0700
0600
0600
0000
ENDCHAR

STARTCHAR less
ENCODING 60
SWIDTH 565 0
DWIDTH 15 0
BBX 15 25 0 -5
BITMAP
0000
0000
0000
0000
0000
0000
000C
003C
00F8
03E0
0780
1E00
7C00
1E00
0F00
03C0
01E0
0078
003C
000C
0000
0000
0000
0000
0000
ENDCHAR

STARTCHAR equal
ENCODING 61
SWIDTH 565 0
DWIDTH 15 0
BBX 15 25 0 -5
BITMAP
0000
0000
0000
0000
0000
0000
0000
0000
0000
0000
3FF8
3FF8
0000
0000
0000
3FF8
3FF8
0000
0000
0000
0000
0000
0000
0000
0000
ENDCHAR

STARTCHAR greater
ENCODING 62
SWIDTH 565 0
DWIDTH 15 0
BBX 15 25 0 -5
BITMAP
0000
0000
0000
0000
0000
0000
6000
7800
3C00
0F00
0780
01E0
00F0
007C
00F0
03C0
0F80
3E00
7800
6000
0000
0000
0000
0000
0000
ENDCHAR

STARTCHAR question
ENCODING 63
SWIDTH 565 0
DWIDTH 15 0
BBX 15 25 0 -5
BITMAP
0000
0000
0000
0000
0000
0FF0
1C3C
1C1C
001C
001C
0078
01E0
0380
0380
0000
0000
0380
07C0
07C0
0380
0000
0000
0000
0000
0000
ENDCHAR

STARTCHAR at
ENCODING 64
SWIDTH 565 0
DWIDTH 15 0
BBX 15 25 0 -5
BITMAP
0000
0000
0000
07E0
0C38
1818
300C
300C
701C
70FC
719C
719C
739C
739C
739C
719C
70EE
7000
7000
3800
3C0C
0FF8
03E0
0000
0000
ENDCHAR

STARTCHAR A
ENCODING 65
SWIDTH 565 0
DWIDTH 15 0
BBX 15 25 0 -5
BITMAP
0000
0000
0000
0000
0000
0380
0380
07C0
06C0
0EE0
0CE0
0C60
1C70
1830
1FF8
3838
3838
301C
701C
783C
0000
0000
0000
0000
0000
ENDCHAR

STARTCHAR B
ENCODING 66
SWIDTH 565 0
DWIDTH 15 0
BBX 15 25 0 -5
BITMAP
0000
0000
0000
0000
0000
7FC0
38E0
3870
3870
3870
3870
38E0
3FC0
38E0
3870
3870
3870
3870
38F0
7FE0
0000
0000
0000
0000
0000
ENDCHAR

STARTCHAR C
ENCODING 67
SWIDTH 565 0
DWIDTH 15 0
BBX 15 25 0 -5
BITMAP
0000
0000
0000
0000
0000
0FD8
3C78
3838
7018
7018
7000
7000
7000
7000
7000
7000
7018
3818
3C38
0FE0
0000
0000
0000
0000
0000
ENDCHAR

STARTCHAR D
ENCODING 68
SWIDTH 565 0
DWIDTH 15 0
BBX 15 25 0 -5
BITMAP
0000
0000
0000
0000
0000
7FC0
3870
3870
3838
3838
3838
3838
3838
3838
3838
3838
3838
3870
3870
7FC0
0000
0000
0000
0000
0000
ENDCHAR

STARTCHAR E
ENCODING 69
SWIDTH 565 0
DWIDTH 15 0
BBX 15 25 0 -5
BITMAP
0000
0000
0000
0000
0000
3FF8
1C18
1C18
1C18
1C00
1C40
1C40
1FC0
1C40
1C40
1C18
1C18
1C18
1C18
3FF8
0000
0000
0000
0000
0000
ENDCHAR

STARTCHAR F
ENCODING 70
SWIDTH 565 0
DWIDTH 15 0
BBX 15 25 0 -5
BITMAP
0000
0000
0000
0000
0000
3FFC
1C0C
1C0C
1C0C
1C00
1C40
1C40
1FC0
1C40
1C40
1C00
1C00
1C00
1C00
3F00
0000
0000
0000
0000
0000
ENDCHAR

STARTCHAR G
ENCODING 71
SWIDTH 565 0
DWIDTH 15 0
BBX 15 25 0 -5
BITMAP
0000
0000
0000
0000
0000
07D8
1E78
1C38
3818
3818
3800
3800
3800
387C
3838
3838
3838
1C38
1E70
07E0
0000
0000
0000
0000
0000
ENDCHAR

STARTCHAR H
ENCODING 72
SWIDTH 565 0
DWIDTH 15 0
BBX 15 25 0 -5
BITMAP
0000
0000
0000
0000
0000
7CF8
3870
3870
3870
3870
3870
3870
3FF0
3870
3870
3870
3870
3870
3870
7CF8
0000
0000
0000
0000
0000
ENDCHAR

STARTCHAR I
ENCODING 73
SWIDTH 565 0
DWIDTH 15 0
BBX 15 25 0 -5
BITMAP
0000
0000
0000
0000
0000
1FF0
0380
0380
0380
0380
0380
0380
0380
0380
0380
0380
0380
0380
0380
1FF0
0000
0000
0000
0000
0000
ENDCHAR

STARTCHAR J
ENCODING 74
SWIDTH 565 0
DWIDTH 15 0
BBX 15 25 0 -5
BITMAP
0000
0000
0000
0000
0000
07F8
00E0
00E0
00E0
00E0
00E0
00E0
00E0
00E0
60E0
60E0
60E0
70E0
71C0
1F80
0000
0000
0000
0000
0000
ENDCHAR

STARTCHAR K
ENCODING 75
SWIDTH 565 0
DWIDTH 15 0
BBX 15 25 0 -5
BITMAP
0000
0000
0000
0000
0000
3E7C
1C30
1C60
1CC0
1CC0
1D80
1F00
1F80
1DC0
1DC0
1CE0
1C70
1C70
1C38
3E7C
0000
0000
0000
0000
0000
ENDCHAR

STARTCHAR L
ENCODING 76
SWIDTH 565 0
DWIDTH 15 0
BBX 15 25 0 -5
BITMAP
0000
0000
0000
0000
0000
3E00
1C00
1C00
1C00
1C00
1C00
1C00
1C00
1C00
1C00
1C18
1C18
1C18
1C18
3FF8
0000
0000
0000
0000
0000
ENDCHAR

STARTCHAR M
ENCODING 77
SWIDTH 565 0
DWIDTH 15 0
BBX 15 25 0 -5
BITMAP
0000
0000
0000
0000
0000
F01E
701C
783C
783C
7C7C
745C
76DC
729C
739C
739C
711C
711C
701C
701C
F83E
0000
0000
0000
0000
0000
ENDCHAR

STARTCHAR N
ENCODING 78
SWIDTH 565 0
DWIDTH 15 0
BBX 15 25 0 -5
BITMAP
0000
0000
0000
0000
0000
7C7C
3C38
3E38
3E38
3B38
3938
39B8
38B8
38F8
3878
3878
3838
3838
3818
7C18
0000
0000
0000
0000
0000
ENDCHAR

STARTCHAR O
ENCODING 79
SWIDTH 565 0
DWIDTH 15 0
BBX 15 25 0 -5
BITMAP
0000
0000
0000
0000
0000
0FC0
3870
3870
7038
7038
7038
7038
7038
7038
7038
7038
7038
3870
3870
0FC0
0000
0000
0000
0000
0000
ENDCHAR

STARTCHAR P
ENCODING 80
SWIDTH 565 0
DWIDTH 15 0
BBX 15 25 0 -5
BITMAP
0000
0000
0000
0000
0000
7FC0
3870
3838
3838
3838
3838
3838
3870
3FC0
3800
3800
3800
3800
3800
7C00
0000
0000
0000
0000
0000
ENDCHAR

STARTCHAR Q
ENCODING 81
SWIDTH 565 0
DWIDTH 15 0
BBX 15 25 0 -5
BITMAP
0000
0000
0000
0000
0000
0FC0
3870
3870
7038
7038
7038
7038
7038
7038
7038
7038
7038
3870
3860
0FC0
0600
0DC4
1FEC
18F8
0000
ENDCHAR

STARTCHAR R
ENCODING 82
SWIDTH 565 0
DWIDTH 15 0
BBX 15 25 0 -5
BITMAP
0000
0000
0000
0000
0000
7FC0
3870
3838
3838
3838
3830
3860
3FC0
39E0
38E0
38F0
3870
3878
3838
7C3C
0000
0000
0000
0000
0000
ENDCHAR

STARTCHAR S
ENCODING 83
SWIDTH 565 0
DWIDTH 15 0
BBX 15 25 0 -5
BITMAP
0000
0000
0000
0000
0000
0FB0
1C70
3870
3830
3800
3800
1E00
0FF0
0078
0038
3038
3038
3838
3C70
37E0
0000
0000
0000
0000
0000
ENDCHAR

STARTCHAR T
ENCODING 84
SWIDTH 565 0
DWIDTH 15 0
BBX 15 25 0 -5
BITMAP
0000
0000
0000
0000
0000
7FFC
638C
638C
638C
638C
0380
0380
0380
0380
0380
0380
0380
0380
0380
07C0
0000
0000
0000
0000
0000
ENDCHAR

STARTCHAR U
ENCODING 85
SWIDTH 565 0
DWIDTH 15 0
BBX 15 25 0 -5
BITMAP
0000
0000
0000
0000
0000
7C7C
3838
3838
3838
3838
3838
3838
3838
3838
3838
3838
3838
1C70
1C70
07C0
0000
0000
0000
0000
0000
ENDCHAR

STARTCHAR V
ENCODING 86
SWIDTH 565 0
DWIDTH 15 0
BBX 15 25 0 -5
BITMAP
0000
0000
0000
0000
0000
FC3E
700C
381C
3818
3818
1C38
1C30
1C30
0E70
0E60
0E60
07C0
07C0
0380
0380
0000
0000
0000
0000
0000
ENDCHAR

STARTCHAR W
ENCODING 87
SWIDTH 565 0
DWIDTH 15 0
BBX 15 25 0 -5
BITMAP
0000
0000
0000
0000
0000
F83E
701C
701C
711C
711C
711C
739C
729C
36D8
36D8
3458
3458
3C78
3838
3838
0000
0000
0000
0000
0000
ENDCHAR

STARTCHAR X
ENCODING 88
SWIDTH 565 0
DWIDTH 15 0
BBX 15 25 0 -5
BITMAP
0000
0000
0000
0000
0000
7E7C
3C38
1C30
0E60
0E60
07C0
0380
0380
03C0
06E0
0EE0
0C70
1C70
3838
7C7C
0000
0000
0000
0000
0000
ENDCHAR

STARTCHAR Y
ENCODING 89
SWIDTH 565 0
DWIDTH 15 0
BBX 15 25 0 -5
BITMAP
0000
0000
0000
0000
0000
FC3C
7818
3830
1C30
1C60
0EC0
07C0
0780
0380
0380
0380
0380
0380
0380
07C0
0000
0000
0000
0000
0000
ENDCHAR

STARTCHAR Z
ENCODING 90
SWIDTH 565 0
DWIDTH 15 0
BBX 15 25 0 -5
BITMAP
0000
0000
0000
0000
0000
7FF8
6038
6070
60E0
00E0
01C0
0380
0380
0700
0E00
1C00
1C18
3818
7018
7FF8
0000
0000
0000
0000
0000
ENDCHAR

STARTCHAR bracketleft
ENCODING 91
SWIDTH 565 0
DWIDTH 15 0
BBX 15 25 0 -5
BITMAP
0000
0000
0000
03F0
0380
0380
0380
0380
0380
0380
0380
0380
0380
0380
0380
0380
0380
0380
0380
0380
0380
03F0
0000
0000
0000
ENDCHAR

STARTCHAR backslash
ENCODING 92
SWIDTH 565 0
DWIDTH 15 0
BBX 15 25 0 -5
BITMAP
0000
0000
0000
3000
3000
1800
1800
0C00
0C00
0600
0600
0300
0300
0180
0180
00C0
00C0
0060
0060
0030
0030
0018
0000
0000
0000
ENDCHAR

STARTCHAR bracketright
ENCODING 93
SWIDTH 565 0
DWIDTH 15 0
BBX 15 25 0 -5
BITMAP
0000
0000
0000
0F80
0380
0380
0380
0380
0380
0380
0380
0380
0380
0380
0380
0380
0380
0380
0380
0380
0380
0F80
0000
0000
0000
ENDCHAR

STARTCHAR asciicircum
ENCODING 94
SWIDTH 565 0
DWIDTH 15 0
BBX 15 25 0 -5
BITMAP
0000
0000
0000
0000
0000
0000
0000
0000
0100
0380
07C0
0EE0
1C70
3838
0000
0000
0000
0000
0000
0000
0000
0000
0000
0000
0000
ENDCHAR

STARTCHAR ldblank
ENCODING 95
SWIDTH 565 0
DWIDTH 15 0
BBX 15 25 0 -5
BITMAP
0000
0000
0000
0000
0000
0000
0000
0000
0000
0000
0000
0000
0000
0000
0000
0000
0000
0000
0000
0000
0000
0000
0000
0000
0000
ENDCHAR

STARTCHAR diamond
ENCODING 96
SWIDTH 565 0
DWIDTH 15 0
BBX 15 25 0 -5
BITMAP
0000
0000
0000
0000
0000
0100
0380
07C0
07C0
0FE0
1FF0
1FF0
3FF8
1FF0
1FF0
0FE0
07C0
07C0
0380
0100
0000
0000
0000
0000
0000
ENDCHAR

STARTCHAR checkerboard
ENCODING 97
SWIDTH 565 0
DWIDTH 15 0
BBX 15 25 0 -5
BITMAP
AAAA
5554
AAAA
5554
AAAA
5554
AAAA
5554
AAAA
5554
AAAA
5554
AAAA
5554
AAAA
5554
AAAA
5554
AAAA
5554
AAAA
5554
AAAA
5554
AAAA
ENDCHAR

STARTCHAR HT
ENCODING 98
SWIDTH 565 0
DWIDTH 15 0
BBX 15 25 0 -5
BITMAP
0000
0000
0000
0000
6300
6300
6300
7F00
7F00
6300
6300
6300
6300
0000
00FC
0030
0030
0030
0030
0030
0030
0030
0000
0000
0000
ENDCHAR

STARTCHAR FF
ENCODING 99
SWIDTH 565 0
DWIDTH 15 0
BBX 15 25 0 -5
BITMAP
0000
0000
0000
0000
7E00
6000
6000
6000
7C00
6000
6000
6000
6000
00FC
00C0
00C0
00C0
00F8
00C0
00C0
00C0
00C0
0000
0000
0000
ENDCHAR

STARTCHAR CR
ENCODING 100
SWIDTH 565 0
DWIDTH 15 0
BBX 15 25 0 -5
BITMAP
0000
0000
0000
0000
3C00
6600
6600
6000
6000
6000
6600
6600
3C00
0000
01F0
0198
0198
0198
01F0
0190
0198
0188
0000
0000
0000
ENDCHAR

STARTCHAR LF
ENCODING 101
SWIDTH 565 0
DWIDTH 15 0
BBX 15 25 0 -5
BITMAP
0000
0000
0000
0000
6000
6000
6000
6000
6000
6000
6000
7E00
0000
00FC
00C0
00C0
00C0
00F8
00C0
00C0
00C0
00C0
0000
0000
0000
ENDCHAR

STARTCHAR degree
ENCODING 102
SWIDTH 565 0
DWIDTH 15 0
BBX 15 25 0 -5
BITMAP
0000
0000
0780
0CC0
1860
1860
1860
1860
0CC0
0780
0000
0000
0000
0000
0000
0000
0000
0000
0000
0000
0000
0000
0000
0000
0000
ENDCHAR

STARTCHAR plusminus
ENCODING 103
SWIDTH 565 0
DWIDTH 15 0
BBX 15 25 0 -5
BITMAP
0000
0000
0000
0000
0000
0300
0300
0300
0300
0300
7FF8
7FF8
0300
0300
0300
0300
0000
0000
7FF8
7FF8
0000
0000
0000
0000
0000
ENDCHAR

STARTCHAR NL
ENCODING 104
SWIDTH 565 0
DWIDTH 15 0
BBX 15 25 0 -5
BITMAP
0000
0000
0000
0000
4300
6300
7300
7300
6B00
6700
6700
6300
6100
0000
0060
0060
0060
0060
0060
0060
0060
007C
0000
0000
0000
ENDCHAR

STARTCHAR VT
ENCODING 105
SWIDTH 565 0
DWIDTH 15 0
BBX 15 25 0 -5
BITMAP
0000
0000
0000
0000
6300
6300
6300
6300
6300
2200
3600
1C00
0800
0000
00FC
0030
0030
0030
0030
0030
0030
0030
0000
0000
0000
ENDCHAR

STARTCHAR ldcornsqlr
ENCODING 106
SWIDTH 565 0
DWIDTH 15 0
BBX 15 25 0 -5
BITMAP
0180
0180
0180
0180
0180
0180
0180
0180
0180
0180
0180
0180
FF80
FF80
0000
0000
0000
0000
0000
0000
0000
0000
0000
0000
0000
ENDCHAR

STARTCHAR ldcornsqur
ENCODING 107
SWIDTH 565 0
DWIDTH 15 0
BBX 15 25 0 -5
BITMAP
0000
0000
0000
0000
0000
0000
0000
0000
0000
0000
0000
0000
FF80
FF80
0180
0180
0180
0180
0180
0180
0180
0180
0180
0180
0180
ENDCHAR

STARTCHAR ldcornsqul
ENCODING 108
SWIDTH 565 0
DWIDTH 15 0
BBX 15 25 0 -5
BITMAP
0000
0000
0000
0000
0000
0000
0000
0000
0000
0000
0000
0000
01FE
01FE
0180
0180
0180
0180
0180
0180
0180
0180
0180
0180
0180
ENDCHAR

STARTCHAR ldcornsqll
ENCODING 109
SWIDTH 565 0
DWIDTH 15 0
BBX 15 25 0 -5
BITMAP
0180
0180
0180
0180
0180
0180
0180
0180
0180
0180
0180
0180
01FE
01FE
0000
0000
0000
0000
0000
0000
0000
0000
0000
0000
0000
ENDCHAR

STARTCHAR ldcross
ENCODING 110
SWIDTH 565 0
DWIDTH 15 0
BBX 15 25 0 -5
BITMAP
0180
0180
0180
0180
0180
0180
0180
0180
0180
0180
0180
0180
FFFE
FFFE
0180
0180
0180
0180
0180
0180
0180
0180
0180
0180
0180
ENDCHAR

STARTCHAR ldscan1
ENCODING 111
SWIDTH 565 0
DWIDTH 15 0
BBX 15 25 0 -5
BITMAP
0000
0000
FFFE
FFFE
0000
0000
0000
0000
0000
0000
0000
0000
0000
0000
0000
0000
0000
0000
0000
0000
0000
0000
0000
0000
0000
ENDCHAR

STARTCHAR ldscan3
ENCODING 112
SWIDTH 565 0
DWIDTH 15 0
BBX 15 25 0 -5
BITMAP
0000
0000
0000
0000
0000
0000
0000
0000
FFFE
FFFE
0000
0000
0000
0000
0000
0000
0000
0000
0000
0000
0000
0000
0000
0000
0000
ENDCHAR

STARTCHAR ldhorizontal
ENCODING 113
SWIDTH 565 0
DWIDTH 15 0
BBX 15 25 0 -5
BITMAP
0000
0000
0000
0000
0000
0000
0000
0000
0000
0000
0000
0000
FFFE
FFFE
0000
0000
0000
0000
0000
0000
0000
0000
0000
0000
0000
ENDCHAR

STARTCHAR ldscan7
ENCODING 114
SWIDTH 565 0
DWIDTH 15 0
BBX 15 25 0 -5
BITMAP
0000
0000
0000
0000
0000
0000
0000
0000
0000
0000
0000
0000
0000
0000
0000
0000
0000
0000
0000
FFFE
FFFE
0000
0000
0000
0000
ENDCHAR

STARTCHAR ldscan9
ENCODING 115
SWIDTH 565 0
DWIDTH 15 0
BBX 15 25 0 -5
BITMAP
0000
0000
0000
0000
0000
0000
0000
0000
0000
0000
0000
0000
0000
0000
0000
0000
0000
0000
0000
0000
0000
0000
0000
FFFE
FFFE
ENDCHAR

STARTCHAR ldteelft
ENCODING 116
SWIDTH 565 0
DWIDTH 15 0
BBX 15 25 0 -5
BITMAP
0180
0180
0180
0180
0180
0180
0180
0180
0180
0180
0180
0180
01FE
01FE
0180
0180
0180
0180
0180
0180
0180
0180
0180
0180
0180
ENDCHAR

STARTCHAR ldteert
ENCODING 117
SWIDTH 565 0
DWIDTH 15 0
BBX 15 25 0 -5
BITMAP
0180
0180
0180
0180
0180
0180
0180
0180
0180
0180
0180
0180
FF80
FF80
0180
0180
0180
0180
0180
0180
0180
0180
0180
0180
0180
ENDCHAR

STARTCHAR ldteebt
ENCODING 118
SWIDTH 565 0
DWIDTH 15 0
BBX 15 25 0 -5
BITMAP
0180
0180
0180
0180
0180
0180
0180
0180
0180
0180
0180
0180
FFFE
FFFE
0000
0000
0000
0000
0000
0000
0000
0000
0000
0000
0000
ENDCHAR

STARTCHAR ldteetp
ENCODING 119
SWIDTH 565 0
DWIDTH 15 0
BBX 15 25 0 -5
BITMAP
0000
0000
0000
0000
0000
0000
0000
0000
0000
0000
0000
0000
FFFE
FFFE
0180
0180
0180
0180
0180
0180
0180
0180
0180
0180
0180
ENDCHAR

STARTCHAR ldvertical
ENCODING 120
SWIDTH 565 0
DWIDTH 15 0
BBX 15 25 0 -5
BITMAP
0180
0180
0180
0180
0180
0180
0180
0180
0180
0180
0180
0180
0180
0180
0180
0180
0180
0180
0180
0180
0180
0180
0180
0180
0180
ENDCHAR

STARTCHAR lessequal
ENCODING 121
SWIDTH 565 0
DWIDTH 15 0
BBX 15 25 0 -5
BITMAP
0000
0000
0000
0000
0000
0000
0078
01F8
07C0
1E00
7800
1E00
0FC0
01F8
0078
0000
0000
0000
7FFC
7FFC
0000
0000
0000
0000
0000
ENDCHAR

STARTCHAR greaterequal
ENCODING 122
SWIDTH 565 0
DWIDTH 15 0
BBX 15 25 0 -5
BITMAP
0000
0000
0000
0000
0000
0000
3C00
3F00
07C0
00F0
003C
00F0
07E0
3F00
3C00
0000
0000
0000
7FFC
7FFC
0000
0000
0000
0000
0000
ENDCHAR

STARTCHAR pi
ENCODING 123
SWIDTH 565 0
DWIDTH 15 0
BBX 15 25 0 -5
BITMAP
0000
0000
0000
0000
0000
0000
0000
0000
7FFC
1C70
1C70
1860
18E0
38E0
30C0
30C0
71C0
6180
6190
60E0
0000
0000
0000
0000
0000
ENDCHAR

STARTCHAR notequal
ENCODING 124
SWIDTH 565 0
DWIDTH 15 0
BBX 15 25 0 -5
BITMAP
0000
0000
0000
0000
0000
0000
0000
0000
0060
00C0
7FFC
7FFC
0180
0300
0600
7FFC
7FFC
0C00
1800
0000
0000
0000
0000
0000
0000
ENDCHAR

STARTCHAR sterling
ENCODING 125
SWIDTH 565 0
DWIDTH 15 0
BBX 15 25 0 -5
BITMAP
0000
0000
0000
0000
0000
07F8
0C38
1C18
1C18
1C00
0E00
3FF0
3FF0
0700
0700
0600
0E00
1F00
3FF8
31F8
0000
0000
0000
0000
0000
ENDCHAR

STARTCHAR periodcentered
ENCODING 126
SWIDTH 565 0
DWIDTH 15 0
BBX 15 25 0 -5
BITMAP
0000
0000
0000
0000
0000
0000
0000
0000
0000
0000
0000
0380
07C0
07C0
0380
0000
0000
0000
0000
0000
0000
0000
0000
0000
0000
ENDCHAR

STARTCHAR Error
ENCODING 159
SWIDTH 565 0
DWIDTH 15 0
BBX 15 25 0 -5
BITMAP
0FF0
3FFC
7E7C
FC3E
FC3E
FC3E
FC3E
FC00
7E00
7F00
3FC0
1FC0
0FE0
07E0
07E0
07E0
07E0
0000
0000
0000
07E0
07E0
07E0
07E0
07E0
ENDCHAR

STARTCHAR space
ENCODING 160
SWIDTH 565 0
DWIDTH 15 0
BBX 15 25 0 -5
BITMAP
0000
0000
0000
0000
0000
0000
0000
0000
0000
0000
0000
0000
0000
0000
0000
0000
0000
0000
0000
0000
0000
0000
0000
0000
0000
ENDCHAR

STARTCHAR ldradicalbt
ENCODING 161
SWIDTH 565 0
DWIDTH 15 0
BBX 15 25 0 -5
BITMAP
0180
0180
0180
0180
0180
0180
0180
0180
1180
3980
3D80
1F80
0F80
0780
0380
0380
0180
0000
0000
0000
0000
0000
0000
0000
0000
ENDCHAR

STARTCHAR ldradicaltp
ENCODING 162
SWIDTH 565 0
DWIDTH 15 0
BBX 15 25 0 -5
BITMAP
0000
0000
0000
0000
0000
0000
0000
0000
0000
0000
0000
0000
01FE
01FE
0180
0180
0180
0180
0180
0180
0180
0180
0180
0180
0180
ENDCHAR

STARTCHAR ldhorizontal
ENCODING 163
SWIDTH 565 0
DWIDTH 15 0
BBX 15 25 0 -5
BITMAP
0000
0000
0000
0000
0000
0000
0000
0000
0000
0000
0000
0000
FFFE
FFFE
0000
0000
0000
0000
0000
0000
0000
0000
0000
0000
0000
ENDCHAR

STARTCHAR ldintegraltp
ENCODING 164
SWIDTH 565 0
DWIDTH 15 0
BBX 15 25 0 -5
BITMAP
0000
0078
00F8
0180
0180
0180
0180
0180
0180
0180
0180
0180
0180
0180
0180
0180
0180
0180
0180
0180
0180
0180
0180
0180
0180
ENDCHAR

STARTCHAR ldintegralbt
ENCODING 165
SWIDTH 565 0
DWIDTH 15 0
BBX 15 25 0 -5
BITMAP
0180
0180
0180
0180
0180
0180
0180
0180
0180
0180
0180
0180
0180
0180
0180
0180
0180
0180
0180
0180
0180
0180
1F00
1E00
0000
ENDCHAR

STARTCHAR ldvertical
ENCODING 166
SWIDTH 565 0
DWIDTH 15 0
BBX 15 25 0 -5
BITMAP
0180
0180
0180
0180
0180
0180
0180
0180
0180
0180
0180
0180
0180
0180
0180
0180
0180
0180
0180
0180
0180
0180
0180
0180
0180
ENDCHAR

STARTCHAR ldbracketlfttp
ENCODING 167
SWIDTH 565 0
DWIDTH 15 0
BBX 15 25 0 -5
BITMAP
0000
0000
01F0
01F0
0180
0180
0180
0180
0180
0180
0180
0180
0180
0180
0180
0180
0180
0180
0180
0180
0180
0180
0180
0180
0180
ENDCHAR

STARTCHAR ldbracketlftbt
ENCODING 168
SWIDTH 565 0
DWIDTH 15 0
BBX 15 25 0 -5
BITMAP
0180
0180
0180
0180
0180
0180
0180
0180
0180
0180
0180
0180
0180
0180
0180
0180
0180
0180
0180
0180
0180
0180
01F0
01F0
0000
ENDCHAR

STARTCHAR ldbracketrttp
ENCODING 169
SWIDTH 565 0
DWIDTH 15 0
BBX 15 25 0 -5
BITMAP
0000
0000
0F80
0F80
0180
0180
0180
0180
0180
0180
0180
0180
0180
0180
0180
0180
0180
0180
0180
0180
0180
0180
0180
0180
0180
ENDCHAR

STARTCHAR ldbracketrtbt
ENCODING 170
SWIDTH 565 0
DWIDTH 15 0
BBX 15 25 0 -5
BITMAP
0180
0180
0180
0180
0180
0180
0180
0180
0180
0180
0180
0180
0180
0180
0180
0180
0180
0180
0180
0180
0180
0180
0F80
0F80
0000
ENDCHAR

STARTCHAR ldbracelfttp
ENCODING 171
SWIDTH 565 0
DWIDTH 15 0
BBX 15 25 0 -5
BITMAP
0000
0000
0060
00C0
00C0
0180
0180
0180
0180
0180
0180
0180
0180
0180
0180
0180
0180
0180
0180
0180
0180
0180
0180
0180
0180
ENDCHAR

STARTCHAR ldbracelftbt
ENCODING 172
SWIDTH 565 0
DWIDTH 15 0
BBX 15 25 0 -5
BITMAP
0180
0180
0180
0180
0180
0180
0180
0180
0180
0180
0180
0180
0180
0180
0180
0180
0180
0180
0180
0180
0180
00C0
00C0
0060
0000
ENDCHAR

STARTCHAR ldbracerttp
ENCODING 173
SWIDTH 565 0
DWIDTH 15 0
BBX 15 25 0 -5
BITMAP
0000
0000
0E00
0300
0300
0180
0180
0180
0180
0180
0180
0180
0180
0180
0180
0180
0180
0180
0180
0180
0180
0180
0180
0180
0180
ENDCHAR

STARTCHAR ldbracertbt
ENCODING 174
SWIDTH 565 0
DWIDTH 15 0
BBX 15 25 0 -5
BITMAP
0180
0180
0180
0180
0180
0180
0180
0180
0180
0180
0180
0180
0180
0180
0180
0180
0180
0180
0180
0180
0180
0300
0300
0E00
0000
ENDCHAR

STARTCHAR ldbracelftmid
ENCODING 175
SWIDTH 565 0
DWIDTH 15 0
BBX 15 25 0 -5
BITMAP
0180
0180
0180
0180
0180
0180
0180
0180
0180
0180
0180
0300
0300
0E00
0300
0300
0180
0180
0180
0180
0180
0180
0180
0180
0180
ENDCHAR

STARTCHAR ldbracertmid
ENCODING 176
SWIDTH 565 0
DWIDTH 15 0
BBX 15 25 0 -5
BITMAP
0180
0180
0180
0180
0180
0180
0180
0180
0180
0180
0180
00C0
00C0
0060
00C0
00C0
0180
0180
0180
0180
0180
0180
0180
0180
0180
ENDCHAR

STARTCHAR ldsigmalfttp
ENCODING 177
SWIDTH 565 0
DWIDTH 15 0
BBX 15 25 0 -5
BITMAP
0000
0000
0000
0000
0000
0000
0000
0000
0000
0000
0000
0000
0FFE
0FFE
0700
0380
0180
01C0
00E0
0070
0038
0018
001C
000E
0006
ENDCHAR

STARTCHAR ldsigmalftbt
ENCODING 178
SWIDTH 565 0
DWIDTH 15 0
BBX 15 25 0 -5
BITMAP
0006
000E
000C
001C
0018
0038
0030
0070
0060
00E0
00C0
01C0
01FE
01FE
0000
0000
0000
0000
0000
0000
0000
0000
0000
0000
0000
ENDCHAR

STARTCHAR ldbackslash
ENCODING 179
SWIDTH 565 0
DWIDTH 15 0
BBX 15 25 0 -5
BITMAP
8000
C000
E000
6000
7000
3000
3800
1C00
0C00
0600
0700
0300
0380
0180
01C0
00C0
00E0
0070
0030
0038
001C
000C
000E
0006
0002
ENDCHAR

STARTCHAR ldslash
ENCODING 180
SWIDTH 565 0
DWIDTH 15 0
BBX 15 25 0 -5
BITMAP
0002
0006
000E
000C
0018
0018
0038
0070
0060
00C0
01C0
0180
0380
0300
0700
0600
0E00
1C00
1800
3800
3000
6000
E000
C000
8000
ENDCHAR

STARTCHAR ldsigmarttp
ENCODING 181
SWIDTH 565 0
DWIDTH 15 0
BBX 15 25 0 -5
BITMAP
0000
0000
0000
0000
0000
0000
0000
0000
0000
0000
0000
0000
FFF8
FFF8
0038
0038
0038
0038
0038
0000
0000
0000
0000
0000
0000
ENDCHAR

STARTCHAR ldsigmartbt
ENCODING 182
SWIDTH 565 0
DWIDTH 15 0
BBX 15 25 0 -5
BITMAP
0000
0000
0000
0000
0000
0000
0000
0000
0038
0038
0038
0038
FFF8
FFF8
0000
0000
0000
0000
0000
0000
0000
0000
0000
0000
0000
ENDCHAR

STARTCHAR ldsigmamid
ENCODING 183
SWIDTH 565 0
DWIDTH 15 0
BBX 15 25 0 -5
BITMAP
C000
E000
6000
7000
3000
1800
1C00
0E00
0600
0700
0300
0380
01C0
01C0
0380
0300
0700
0E00
0C00
1C00
3800
3000
7000
E000
C000
ENDCHAR

STARTCHAR lessequal
ENCODING 188
SWIDTH 565 0
DWIDTH 15 0
BBX 15 25 0 -5
BITMAP
0000
0000
0000
0000
0000
0000
0078
01F8
07C0
1E00
7800
1E00
0FC0
01F8
0078
0000
0000
0000
7FFC
7FFC
0000
0000
0000
0000
0000
ENDCHAR

STARTCHAR notequal
ENCODING 189
SWIDTH 565 0
DWIDTH 15 0
BBX 15 25 0 -5
BITMAP
0000
0000
0000
0000
0000
0000
0000
0000
0060
00C0
7FFC
7FFC
0180
0300
0600
7FFC
7FFC
0C00
1800
0000
0000
0000
0000
0000
0000
ENDCHAR

STARTCHAR greaterequal
ENCODING 190
SWIDTH 565 0
DWIDTH 15 0
BBX 15 25 0 -5
BITMAP
0000
0000
0000
0000
0000
0000
3C00
3F00
07C0
00F0
003C
00F0
07E0
3F00
3C00
0000
0000
0000
7FFC
7FFC
0000
0000
0000
0000
0000
ENDCHAR

STARTCHAR integral
ENCODING 191
SWIDTH 565 0
DWIDTH 15 0
BBX 15 25 0 -5
BITMAP
0000
0078
00FC
018C
018C
0180
0180
0180
0180
0180
0180
0180
0180
0180
0180
0180
0180
0180
0180
0180
0180
3180
3180
3F00
1E00
ENDCHAR

STARTCHAR therefore
ENCODING 192
SWIDTH 565 0
DWIDTH 15 0
BBX 15 25 0 -5
BITMAP
0000
0000
0000
0000
0000
0000
0000
0000
0380
07C0
07C0
0380
0000
0000
0000
0000
3838
7C7C
7C7C
3838
0000
0000
0000
0000
0000
ENDCHAR

STARTCHAR proportional
ENCODING 193
SWIDTH 565 0
DWIDTH 15 0
BBX 15 25 0 -5
BITMAP
0000
0000
0000
0000
0000
0000
0000
0000
1E3C
3F7C
71C0
6180
6180
6180
71C0
3F7C
1E3C
0000
0000
0000
0000
0000
0000
0000
0000
ENDCHAR

STARTCHAR infinity
ENCODING 194
SWIDTH 565 0
DWIDTH 15 0
BBX 15 25 0 -5
BITMAP
0000
0000
0000
0000
0000
0000
0000
0000
1E78
3FFC
73CE
6186
6186
6186
73CE
3FFC
1E78
0000
0000
0000
0000
0000
0000
0000
0000
ENDCHAR

STARTCHAR divide
ENCODING 195
SWIDTH 565 0
DWIDTH 15 0
BBX 15 25 0 -5
BITMAP
0000
0000
0000
0000
0000
0000
0000
0300
0300
0300
0000
0000
7FF8
7FF8
0000
0000
0300
0300
0300
0000
0000
0000
0000
0000
0000
ENDCHAR

STARTCHAR Delta
ENCODING 196
SWIDTH 565 0
DWIDTH 15 0
BBX 15 25 0 -5
BITMAP
0000
0000
0000
0000
0000
0100
0380
0380
07C0
06C0
0C60
0C60
1C70
1830
3830
3838
3018
701C
701C
7FFC
0000
0000
0000
0000
0000
ENDCHAR

STARTCHAR gradient
ENCODING 197
SWIDTH 565 0
DWIDTH 15 0
BBX 15 25 0 -5
BITMAP
0000
0000
0000
0000
0000
7FFC
701C
701C
3018
3838
3830
1830
1C70
0C60
0C60
06C0
07C0
0380
0380
0100
0000
0000
0000
0000
0000
ENDCHAR

STARTCHAR Phi
ENCODING 198
SWIDTH 565 0
DWIDTH 15 0
BBX 15 25 0 -5
BITMAP
0000
0000
0000
0000
0000
0FE0
0380
0380
0FE0
3BB8
3398
739C
739C
739C
3398
3BB8
0FE0
0380
0380
0FE0
0000
0000
0000
0000
0000
ENDCHAR

STARTCHAR Gamma
ENCODING 199
SWIDTH 565 0
DWIDTH 15 0
BBX 15 25 0 -5
BITMAP
0000
0000
0000
0000
0000
7FF8
1C38
1C38
1C38
1C38
1C00
1C00
1C00
1C00
1C00
1C00
1C00
1C00
1C00
7F00
0000
0000
0000
0000
0000
ENDCHAR

STARTCHAR similar
ENCODING 200
SWIDTH 565 0
DWIDTH 15 0
BBX 15 25 0 -5
BITMAP
0000
0000
0000
0000
0000
0000
0000
0000
0000
0000
1E0C
3F8C
63F8
60F0
0000
0000
0000
0000
0000
0000
0000
0000
0000
0000
0000
ENDCHAR

STARTCHAR approxequal
ENCODING 201
SWIDTH 565 0
DWIDTH 15 0
BBX 15 25 0 -5
BITMAP
0000
0000
0000
0000
0000
0000
0000
0000
0000
1E0C
3F8C
63F8
60F0
0000
0000
0000
0000
7FFC
7FFC
0000
0000
0000
0000
0000
0000
ENDCHAR

STARTCHAR Theta
ENCODING 202
SWIDTH 565 0
DWIDTH 15 0
BBX 15 25 0 -5
BITMAP
0000
0000
0000
0000
0000
0FE0
3838
3838
701C
701C
745C
77DC
77DC
745C
701C
701C
701C
3838
3838
0FE0
0000
0000
0000
0000
0000
ENDCHAR

STARTCHAR multiply
ENCODING 203
SWIDTH 565 0
DWIDTH 15 0
BBX 15 25 0 -5
BITMAP
0000
0000
0000
0000
0000
0000
0000
0000
3018
3838
1C70
0EE0
07C0
07C0
0EE0
1C70
3838
3018
0000
0000
0000
0000
0000
0000
0000
ENDCHAR

STARTCHAR Lambda
ENCODING 204
SWIDTH 565 0
DWIDTH 15 0
BBX 15 25 0 -5
BITMAP
0000
0000
0000
0000
0000
0100
0380
0380
07C0
06C0
0C60
0C60
1C70
1830
3830
3838
3018
701C
701C
7C7C
0000
0000
0000
0000
0000
ENDCHAR

STARTCHAR arrowdblboth
ENCODING 205
SWIDTH 565 0
DWIDTH 15 0
BBX 15 25 0 -5
BITMAP
0000
0000
0000
0000
0000
0000
0000
0820
0820
1FF0
3FF8
701C
E00E
E00E
701C
3FF8
1FF0
0820
0820
0000
0000
0000
0000
0000
0000
ENDCHAR

STARTCHAR arrowdblright
ENCODING 206
SWIDTH 565 0
DWIDTH 15 0
BBX 15 25 0 -5
BITMAP
0000
0000
0000
0000
0000
0000
0000
0040
0040
FFE0
FFF0
0038
001C
001C
0038
FFF0
FFE0
0040
0040
0000
0000
0000
0000
0000
0000
ENDCHAR

STARTCHAR equivalence
ENCODING 207
SWIDTH 565 0
DWIDTH 15 0
BBX 15 25 0 -5
BITMAP
0000
0000
0000
0000
0000
0000
0000
7FFC
7FFC
0000
0000
0000
7FFC
7FFC
0000
0000
0000
7FFC
7FFC
0000
0000
0000
0000
0000
0000
ENDCHAR

STARTCHAR Pi
ENCODING 208
SWIDTH 565 0
DWIDTH 15 0
BBX 15 25 0 -5
BITMAP
0000
0000
0000
0000
0000
7FFC
3838
3838
3838
3838
3838
3838
3838
3838
3838
3838
3838
3838
3838
7C7C
0000
0000
0000
0000
0000
ENDCHAR

STARTCHAR Psi
ENCODING 209
SWIDTH 565 0
DWIDTH 15 0
BBX 15 25 0 -5
BITMAP
0000
0000
0000
0000
0000
0FE0
0380
0380
739C
739C
739C
739C
3398
3BB8
0FE0
0380
0380
0380
0380
0FE0
0000
0000
0000
0000
0000
ENDCHAR

STARTCHAR Sigma
ENCODING 211
SWIDTH 565 0
DWIDTH 15 0
BBX 15 25 0 -5
BITMAP
0000
0000
0000
0000
0000
7FF8
7038
3838
1C38
0E00
0700
0380
01C0
0380
0700
0E38
1C38
3838
7038
7FF8
0000
0000
0000
0000
0000
ENDCHAR

STARTCHAR radical
ENCODING 214
SWIDTH 565 0
DWIDTH 15 0
BBX 15 25 0 -5
BITMAP
0000
0000
0006
0006
0006
000C
000C
0018
0018
6018
E030
E030
7070
3060
3060
38E0
18C0
18C0
1DC0
0F80
0F80
0700
0700
0000
0000
ENDCHAR

STARTCHAR Omega
ENCODING 215
SWIDTH 565 0
DWIDTH 15 0
BBX 15 25 0 -5
BITMAP
0000
0000
0000
0000
0000
0FE0
3C78
3838
701C
701C
701C
701C
701C
3018
3838
1C70
0C60
6C6C
6C6C
7C7C
0000
0000
0000
0000
0000
ENDCHAR

STARTCHAR Xi
ENCODING 216
SWIDTH 565 0
DWIDTH 15 0
BBX 15 25 0 -5
BITMAP
0000
0000
0000
0000
0000
7FF8
7038
7038
7038
0000
1860
1860
1FE0
1860
1860
0000
7038
7038
7038
7FF8
0000
0000
0000
0000
0000
ENDCHAR

STARTCHAR Upsilon1
ENCODING 217
SWIDTH 565 0
DWIDTH 15 0
BBX 15 25 0 -5
BITMAP
0000
0000
0000
0000
0000
701C
783C
3838
1C70
1C70
0C60
0EE0
07C0
07C0
0380
0380
0380
0380
0380
0FE0
0000
0000
0000
0000
0000
ENDCHAR

STARTCHAR propersubset
ENCODING 218
SWIDTH 565 0
DWIDTH 15 0
BBX 15 25 0 -5
BITMAP
0000
0000
0000
0000
0000
0000
0FF8
3FF8
3800
7000
7000
7000
7000
7000
7000
7000
3800
3FF8
0FF8
0000
0000
0000
0000
0000
0000
ENDCHAR

STARTCHAR propersuperset
ENCODING 219
SWIDTH 565 0
DWIDTH 15 0
BBX 15 25 0 -5
BITMAP
0000
0000
0000
0000
0000
0000
7FC0
7FF0
0070
0038
0038
0038
0038
0038
0038
0038
0070
7FF0
7FC0
0000
0000
0000
0000
0000
0000
ENDCHAR

STARTCHAR intersection
ENCODING 220
SWIDTH 565 0
DWIDTH 15 0
BBX 15 25 0 -5
BITMAP
0000
0000
0000
0000
0000
0FE0
3FF8
3018
701C
701C
701C
701C
701C
701C
701C
701C
701C
701C
701C
701C
0000
0000
0000
0000
0000
ENDCHAR

STARTCHAR union
ENCODING 221
SWIDTH 565 0
DWIDTH 15 0
BBX 15 25 0 -5
BITMAP
0000
0000
0000
0000
0000
701C
701C
701C
701C
701C
701C
701C
701C
701C
701C
701C
701C
3018
3FF8
0FE0
0000
0000
0000
0000
0000
ENDCHAR

STARTCHAR logicaland
ENCODING 222
SWIDTH 565 0
DWIDTH 15 0
BBX 15 25 0 -5
BITMAP
0000
0000
0000
0000
0000
0000
0000
0380
0380
07C0
06C0
0EE0
0C60
1C70
1C70
3838
3838
701C
701C
0000
0000
0000
0000
0000
0000
ENDCHAR

STARTCHAR logicalor
ENCODING 223
SWIDTH 565 0
DWIDTH 15 0
BBX 15 25 0 -5
BITMAP
0000
0000
0000
0000
0000
0000
0000
701C
701C
3838
3838
1C70
1C70
0C60
0EE0
06C0
07C0
0380
0380
0000
0000
0000
0000
0000
0000
ENDCHAR

STARTCHAR logicalnot
ENCODING 224
SWIDTH 565 0
DWIDTH 15 0
BBX 15 25 0 -5
BITMAP
0000
0000
0000
0000
0000
0000
0000
0000
0000
0000
0000
7FF8
7FF8
0038
0038
0038
0038
0000
0000
0000
0000
0000
0000
0000
0000
ENDCHAR

STARTCHAR alpha
ENCODING 225
SWIDTH 565 0
DWIDTH 15 0
BBX 15 25 0 -5
BITMAP
0000
0000
0000
0000
0000
0000
0000
0000
0784
1CEC
3878
3870
7070
7060
7060
70E0
70E0
71F0
39B8
1F08
0000
0000
0000
0000
0000
ENDCHAR

STARTCHAR beta
ENCODING 226
SWIDTH 565 0
DWIDTH 15 0
BBX 15 25 0 -5
BITMAP
0000
0000
0000
03E0
0630
0E38
0C38
0C38
1C38
1C70
19C0
19C0
3870
3838
3838
3038
3038
7830
7C70
67C0
6000
E000
E000
E000
0000
ENDCHAR

STARTCHAR chi
ENCODING 227
SWIDTH 565 0
DWIDTH 15 0
BBX 15 25 0 -5
BITMAP
0000
0000
0000
0000
0000
0000
0000
0000
3C18
1C38
0C70
0E70
06E0
06C0
0380
0380
0700
0F80
0DC0
1CC0
38E0
3860
7070
7078
0000
ENDCHAR

STARTCHAR delta
ENCODING 228
SWIDTH 565 0
DWIDTH 15 0
BBX 15 25 0 -5
BITMAP
0000
0000
0000
03F8
07F8
0600
0600
0300
0180
0FE0
3870
3030
7038
7038
7038
7038
7038
3030
3870
0FC0
0000
0000
0000
0000
0000
ENDCHAR

STARTCHAR epsilon
ENCODING 229
SWIDTH 565 0
DWIDTH 15 0
BBX 15 25 0 -5
BITMAP
0000
0000
0000
0000
0000
0000
0000
0000
03F0
0F00
1C00
1C00
3800
3FC0
3800
3800
3800
3C00
1C00
0FF0
0000
0000
0000
0000
0000
ENDCHAR

STARTCHAR phi
ENCODING 230
SWIDTH 565 0
DWIDTH 15 0
BBX 15 25 0 -5
BITMAP
0000
0000
0000
0000
0080
0080
0180
0180
0FC0
1D70
3930
3138
7338
7338
7338
7338
7230
3270
3AE0
1F80
0600
0600
0400
0400
0000
ENDCHAR

STARTCHAR gamma
ENCODING 231
SWIDTH 565 0
DWIDTH 15 0
BBX 15 25 0 -5
BITMAP
0000
0000
0000
0000
0000
0000
0000
0000
783C
3838
3870
1870
1C60
1CE0
0CC0
0F80
0780
0700
0E00
0E00
0C00
1C00
1800
3800
0000
ENDCHAR

STARTCHAR eta
ENCODING 232
SWIDTH 565 0
DWIDTH 15 0
BBX 15 25 0 -5
BITMAP
0000
0000
0000
0000
0000
0000
0000
0000
7BF0
1C38
1C38
1C38
3838
3838
3830
3870
7070
7070
7070
7070
0060
00E0
00E0
00E0
0000
ENDCHAR

STARTCHAR iota
ENCODING 233
SWIDTH 565 0
DWIDTH 15 0
BBX 15 25 0 -5
BITMAP
0000
0000
0000
0000
0000
0000
0000
0000
3F00
0700
0700
0700
0E00
0E00
0E00
1C00
1C00
1C70
0E70
07E0
0000
0000
0000
0000
0000
ENDCHAR

STARTCHAR theta
ENCODING 234
SWIDTH 565 0
DWIDTH 15 0
BBX 15 25 0 -5
BITMAP
0000
0000
0000
03E0
07F0
0E70
1C38
1838
3838
3038
3038
7FF8
7038
7030
7070
7070
70E0
39C0
3F80
1E00
0000
0000
0000
0000
0000
ENDCHAR

STARTCHAR kappa
ENCODING 235
SWIDTH 565 0
DWIDTH 15 0
BBX 15 25 0 -5
BITMAP
0000
0000
0000
0000
0000
0000
0000
0000
7870
38E0
39C0
3980
3B00
3F00
7B80
71C0
70E0
70F0
7078
7038
0000
0000
0000
0000
0000
ENDCHAR

STARTCHAR lambda
ENCODING 236
SWIDTH 565 0
DWIDTH 15 0
BBX 15 25 0 -5
BITMAP
0000
0000
0000
1C00
1E00
0600
0700
0300
0380
0180
03C0
03C0
06E0
0E60
0C70
1C30
3838
3838
701C
701C
0000
0000
0000
0000
0000
ENDCHAR

STARTCHAR nu
ENCODING 238
SWIDTH 565 0
DWIDTH 15 0
BBX 15 25 0 -5
BITMAP
0000
0000
0000
0000
0000
0000
0000
0000
7C38
1C38
1C38
1C30
1C70
1C60
1C60
1CC0
1CC0
1F80
1F00
1C00
0000
0000
0000
0000
0000
ENDCHAR

STARTCHAR partialdiff
ENCODING 239
SWIDTH 565 0
DWIDTH 15 0
BBX 15 25 0 -5
BITMAP
0000
0000
0000
0000
0000
0F00
01C0
00E0
0070
0030
07B8
0C78
1838
3838
3838
3838
3838
1830
1C70
07C0
0000
0000
0000
0000
0000
ENDCHAR

STARTCHAR pi
ENCODING 240
SWIDTH 565 0
DWIDTH 15 0
BBX 15 25 0 -5
BITMAP
0000
0000
0000
0000
0000
0000
0000
0000
7FFC
1C70
1C70
1860
18E0
38E0
30C0
30C0
71C0
6180
6190
60E0
0000
0000
0000
0000
0000
ENDCHAR

STARTCHAR psi
ENCODING 241
SWIDTH 565 0
DWIDTH 15 0
BBX 15 25 0 -5
BITMAP
0000
0000
0000
0000
0080
0080
0080
0180
799C
399C
399C
311C
3318
7338
6330
6330
6670
6660
36C0
1F80
0600
0600
0400
0400
0000
ENDCHAR

STARTCHAR rho
ENCODING 242
SWIDTH 565 0
DWIDTH 15 0
BBX 15 25 0 -5
BITMAP
0000
0000
0000
0000
0000
0000
0000
0000
03C0
0E70
1C30
1838
1838
3838
3838
3838
3838
3870
3C70
37C0
7000
7000
6000
6000
6000
ENDCHAR

STARTCHAR sigma
ENCODING 243
SWIDTH 565 0
DWIDTH 15 0
BBX 15 25 0 -5
BITMAP
0000
0000
0000
0000
0000
0000
0000
0000
07FC
1C70
3838
3038
7038
7038
7038
7038
7030
3070
38E0
1F80
0000
0000
0000
0000
0000
ENDCHAR

STARTCHAR tau
ENCODING 244
SWIDTH 565 0
DWIDTH 15 0
BBX 15 25 0 -5
BITMAP
0000
0000
0000
0000
0000
0000
0000
0000
7FF8
0700
0700
0700
0E00
0E00
0E00
1E00
1C00
1C38
0E38
07F0
0000
0000
0000
0000
0000
ENDCHAR

STARTCHAR florin
ENCODING 246
SWIDTH 565 0
DWIDTH 15 0
BBX 15 25 0 -5
BITMAP
0000
0000
0078
00E0
00C0
01C0
01C0
01C0
0180
0FF0
0380
0380
0380
0380
0380
0300
0700
0700
0700
0600
0E00
0C00
1C00
7800
0000
ENDCHAR

STARTCHAR omega
ENCODING 247
SWIDTH 565 0
DWIDTH 15 0
BBX 15 25 0 -5
BITMAP
0000
0000
0000
0000
0000
0000
0000
0000
381C
381C
399C
399C
719C
711C
7118
7318
6338
6330
6770
3DC0
0000
0000
0000
0000
0000
ENDCHAR

STARTCHAR xi
ENCODING 248
SWIDTH 565 0
DWIDTH 15 0
BBX 15 25 0 -5
BITMAP
0000
0000
0000
1FF8
1FF8
0380
0600
0E00
0E00
0E00
0700
03F0
0E00
1C00
3800
3800
3800
3800
1C00
0FE0
0070
0070
00F0
03E0
0000
ENDCHAR

STARTCHAR upsilon
ENCODING 249
SWIDTH 565 0
DWIDTH 15 0
BBX 15 25 0 -5
BITMAP
0000
0000
0000
0000
0000
0000
0000
0000
781C
381C
381C
381C
701C
701C
7018
7018
7038
3030
38E0
1FC0
0000
0000
0000
0000
0000
ENDCHAR

STARTCHAR zeta
ENCODING 250
SWIDTH 565 0
DWIDTH 15 0
BBX 15 25 0 -5
BITMAP
0000
0000
0000
1FF0
1FF0
00E0
01C0
0380
0700
0E00
1C00
1C00
3800
3800
3800
3800
3800
3C00
1E00
07F0
0038
0038
0070
01E0
0000
ENDCHAR

STARTCHAR arrowleft
ENCODING 251
SWIDTH 565 0
DWIDTH 15 0
BBX 15 25 0 -5
BITMAP
0000
0000
0000
0000
0000
0000
0000
0600
0E00
1C00
1800
3000
7FFC
7FFC
3000
1800
1C00
0E00
0600
0000
0000
0000
0000
0000
0000
ENDCHAR

STARTCHAR arrowup
ENCODING 252
SWIDTH 565 0
DWIDTH 15 0
BBX 15 25 0 -5
BITMAP
0000
0000
0000
0180
03C0
0FF0
1DB8
399C
318C
0180
0180
0180
0180
0180
0180
0180
0180
0180
0180
0180
0180
0180
0000
0000
0000
ENDCHAR

STARTCHAR arrowright
ENCODING 253
SWIDTH 565 0
DWIDTH 15 0
BBX 15 25 0 -5
BITMAP
0000
0000
0000
0000
0000
0000
0000
00C0
00E0
0070
0030
0018
7FFC
7FFC
0018
0030
0070
00E0
00C0
0000
0000
0000
0000
0000
0000
ENDCHAR

STARTCHAR arrowdown
ENCODING 254
SWIDTH 565 0
DWIDTH 15 0
BBX 15 25 0 -5
BITMAP
0000
0000
0000
0180
0180
0180
0180
0180
0180
0180
0180
0180
0180
0180
0180
0180
318C
399C
1DB8
0FF0
03C0
0180
0000
0000
0000
ENDCHAR
ENDFONT
